<?xml version="1.0" standalone="no"?><!DOCTYPE svg PUBLIC "-//W3C//DTD SVG 1.1//EN" "http://www.w3.org/Graphics/SVG/1.1/DTD/svg11.dtd"><svg class="icon" width="300px" height="300.00px" viewBox="0 0 1024 1024" version="1.1" xmlns="http://www.w3.org/2000/svg"><path fill="#61c7ff" d="M917.9648 206.464L588.1344 17.28c-38.3488-23.04-99.712-23.04-138.0608 0L120.2432 206.4384C81.8944 226.9184 51.2 280.576 51.2 326.6304v373.2992c0 43.4688 30.6944 97.152 69.0432 120.1664l329.8304 186.624c38.3488 23.04 99.712 23.04 138.0608 0l329.8304-186.624c38.3488-23.0144 69.0176-76.6976 69.0176-120.1664V326.6304c0-46.0288-30.6688-99.712-69.0176-120.1664z m-227.584 291.4816L452.608 802.2016c-12.7744 17.8944-20.4544 12.8-17.8944-7.68l30.6944-248.0128h-99.712c-28.1344 0-35.8144-17.8944-17.92-38.3488l214.784-276.1216c25.5744-33.2544 43.4688-25.6 38.3488 15.3344l-25.5744 209.664h99.7376c22.9888 2.56 33.2288 20.4544 15.3344 40.9088z"  /></svg>