<?xml version="1.0" standalone="no"?><!DOCTYPE svg PUBLIC "-//W3C//DTD SVG 1.1//EN" "http://www.w3.org/Graphics/SVG/1.1/DTD/svg11.dtd"><svg class="icon" width="300px" height="300.00px" viewBox="0 0 1024 1024" version="1.1" xmlns="http://www.w3.org/2000/svg"><path d="M834.6112 901.9392H184.832c-74.4448 0-135.0144-60.5696-135.0144-135.0144V340.6336c0-74.4448 60.5696-135.0144 135.0144-135.0144h92.16c6.144 0 11.52-4.352 12.8-10.3936 10.1376-48.4352 53.4528-83.6096 102.912-83.6096h233.984c49.5104 0 92.7744 35.1744 102.9632 83.6096 1.28 6.0416 6.656 10.3936 12.8 10.3936h92.16c74.4448 0 135.0144 60.5696 135.0144 135.0144v426.2912c0 74.4448-60.5696 135.0144-135.0144 135.0144zM184.832 256.8192c-46.2336 0-83.8144 37.5808-83.8144 83.8144v426.2912c0 46.2336 37.5808 83.8144 83.8144 83.8144h649.7792c46.2336 0 83.8144-37.5808 83.8144-83.8144V340.6336c0-46.2336-37.5808-83.8144-83.8144-83.8144h-92.16c-30.2592 0-56.6784-21.504-62.9248-51.0976-5.2224-24.8832-27.4432-42.9056-52.8384-42.9056H392.704c-25.3952 0-47.616 18.0224-52.8384 42.9056-6.1952 29.5936-32.6656 51.0976-62.9248 51.0976H184.832z"  /><path d="M510.2592 548.7104m-202.5984 0a202.5984 202.5984 0 1 0 405.1968 0 202.5984 202.5984 0 1 0-405.1968 0Z" /><path d="M510.2592 776.9088c-125.8496 0-228.1984-102.4-228.1984-228.1984s102.4-228.1984 228.1984-228.1984 228.1984 102.4 228.1984 228.1984-102.4 228.1984-228.1984 228.1984z m0-405.1968c-97.5872 0-176.9984 79.4112-176.9984 176.9984 0 97.5872 79.4112 176.9984 176.9984 176.9984s176.9984-79.4112 176.9984-176.9984c0-97.6384-79.4112-176.9984-176.9984-176.9984z"  /><path d="M804.864 359.168m-37.1712 0a37.1712 37.1712 0 1 0 74.3424 0 37.1712 37.1712 0 1 0-74.3424 0Z"  /></svg>